<mxfile host="65bd71144e">
    <diagram id="9iT3tkyzGxmtPq7A0b5b" name="Page-1">
        <mxGraphModel dx="248" dy="283" grid="0" gridSize="10" guides="1" tooltips="1" connect="1" arrows="1" fold="1" page="1" pageScale="1" pageWidth="850" pageHeight="1100" math="0" shadow="0">
            <root>
                <mxCell id="0"/>
                <mxCell id="1" parent="0"/>
                <mxCell id="13" style="edgeStyle=none;html=1;exitX=0;exitY=0.5;exitDx=0;exitDy=0;entryX=1;entryY=0.5;entryDx=0;entryDy=0;" parent="1" source="2" target="12" edge="1">
                    <mxGeometry relative="1" as="geometry"/>
                </mxCell>
                <mxCell id="2" value="vehicles&lt;br&gt;type: sport, suv....&lt;br&gt;model:fiat punto ecc.." style="whiteSpace=wrap;html=1;" parent="1" vertex="1">
                    <mxGeometry x="547" y="668" width="120" height="112" as="geometry"/>
                </mxCell>
                <mxCell id="7" style="edgeStyle=none;html=1;exitX=0.5;exitY=1;exitDx=0;exitDy=0;" parent="1" source="2" target="5" edge="1">
                    <mxGeometry relative="1" as="geometry">
                        <mxPoint x="793" y="754" as="sourcePoint"/>
                    </mxGeometry>
                </mxCell>
                <mxCell id="5" value="category" style="whiteSpace=wrap;html=1;" parent="1" vertex="1">
                    <mxGeometry x="547" y="799" width="120" height="60" as="geometry"/>
                </mxCell>
                <mxCell id="20" value="" style="edgeStyle=none;html=1;" parent="1" source="12" target="16" edge="1">
                    <mxGeometry relative="1" as="geometry"/>
                </mxCell>
                <mxCell id="21" style="edgeStyle=none;html=1;" parent="1" source="12" target="17" edge="1">
                    <mxGeometry relative="1" as="geometry"/>
                </mxCell>
                <mxCell id="12" value="articles&lt;br&gt;color&lt;br&gt;price&lt;br&gt;review_id" style="whiteSpace=wrap;html=1;" parent="1" vertex="1">
                    <mxGeometry x="392" y="696" width="120" height="56" as="geometry"/>
                </mxCell>
                <mxCell id="19" value="" style="edgeStyle=none;html=1;" parent="1" source="15" target="16" edge="1">
                    <mxGeometry relative="1" as="geometry"/>
                </mxCell>
                <mxCell id="22" value="" style="edgeStyle=none;html=1;" parent="1" source="15" target="17" edge="1">
                    <mxGeometry relative="1" as="geometry"/>
                </mxCell>
                <mxCell id="15" value="users&lt;br&gt;name&lt;br&gt;role: sell/buy" style="whiteSpace=wrap;html=1;" parent="1" vertex="1">
                    <mxGeometry x="237" y="788" width="120" height="60" as="geometry"/>
                </mxCell>
                <mxCell id="16" value="orders&lt;br&gt;article_id&lt;br&gt;orderdate&lt;br&gt;user_id" style="whiteSpace=wrap;html=1;" parent="1" vertex="1">
                    <mxGeometry x="237" y="692" width="120" height="60" as="geometry"/>
                </mxCell>
                <mxCell id="17" value="review&lt;br&gt;user_id&lt;br&gt;comment" style="whiteSpace=wrap;html=1;" parent="1" vertex="1">
                    <mxGeometry x="390" y="788" width="120" height="60" as="geometry"/>
                </mxCell>
                <mxCell id="23" value="" style="edgeStyle=none;orthogonalLoop=1;jettySize=auto;html=1;" edge="1" parent="1">
                    <mxGeometry width="80" relative="1" as="geometry">
                        <mxPoint x="133" y="708" as="sourcePoint"/>
                        <mxPoint x="213" y="708" as="targetPoint"/>
                        <Array as="points"/>
                    </mxGeometry>
                </mxCell>
            </root>
        </mxGraphModel>
    </diagram>
</mxfile>